<?xml version="1.0" encoding="utf-8"?>
<svg xmlns="http://www.w3.org/2000/svg" version="1.1" width="500" height="500">

<line x1="100" y1="100" x2="200" y2="100" stroke="green" stroke-width="3" />
<text text-anchor="middle" x="150" y="100" fill="red" dominant-baseline="central" >6</text>
<text text-anchor="middle" x="160" y="100" fill="red" dominant-baseline="central" >;</text>
<text text-anchor="middle" x="170" y="100" fill="red" dominant-baseline="central" >5</text>
<line x1="200" y1="300" x2="300" y2="300" stroke="green" stroke-width="3" />
<text text-anchor="middle" x="250" y="300" fill="red" dominant-baseline="central" >1</text>
<text text-anchor="middle" x="260" y="300" fill="red" dominant-baseline="central" >;</text>
<text text-anchor="middle" x="270" y="300" fill="red" dominant-baseline="central" >1</text>
<line x1="300" y1="300" x2="400" y2="300" stroke="green" stroke-width="3" />
<text text-anchor="middle" x="350" y="300" fill="red" dominant-baseline="central" >8</text>
<text text-anchor="middle" x="360" y="300" fill="red" dominant-baseline="central" >;</text>
<text text-anchor="middle" x="370" y="300" fill="red" dominant-baseline="central" >3</text>
<line x1="100" y1="400" x2="200" y2="400" stroke="green" stroke-width="3" />
<text text-anchor="middle" x="150" y="400" fill="red" dominant-baseline="central" >3</text>
<text text-anchor="middle" x="160" y="400" fill="red" dominant-baseline="central" >;</text>
<text text-anchor="middle" x="170" y="400" fill="red" dominant-baseline="central" >1</text>
<line x1="300" y1="400" x2="400" y2="400" stroke="green" stroke-width="3" />
<text text-anchor="middle" x="350" y="400" fill="red" dominant-baseline="central" >3</text>
<text text-anchor="middle" x="360" y="400" fill="red" dominant-baseline="central" >;</text>
<text text-anchor="middle" x="370" y="400" fill="red" dominant-baseline="central" >5</text>
<line x1="100" y1="100" x2="100" y2="200" stroke="green" stroke-width="3" />
<text text-anchor="middle" x="100" y="150" fill="red" dominant-baseline="central" >8</text>
<text text-anchor="middle" x="110" y="150" fill="red" dominant-baseline="central" >;</text>
<text text-anchor="middle" x="120" y="150" fill="red" dominant-baseline="central" >9</text>
<line x1="200" y1="100" x2="200" y2="200" stroke="green" stroke-width="3" />
<text text-anchor="middle" x="200" y="150" fill="red" dominant-baseline="central" >7</text>
<text text-anchor="middle" x="210" y="150" fill="red" dominant-baseline="central" >;</text>
<text text-anchor="middle" x="220" y="150" fill="red" dominant-baseline="central" >2</text>
<line x1="300" y1="100" x2="300" y2="200" stroke="green" stroke-width="3" />
<text text-anchor="middle" x="300" y="150" fill="red" dominant-baseline="central" >8</text>
<text text-anchor="middle" x="310" y="150" fill="red" dominant-baseline="central" >;</text>
<text text-anchor="middle" x="320" y="150" fill="red" dominant-baseline="central" >8</text>
<line x1="400" y1="100" x2="400" y2="200" stroke="green" stroke-width="3" />
<text text-anchor="middle" x="400" y="150" fill="red" dominant-baseline="central" >6</text>
<text text-anchor="middle" x="410" y="150" fill="red" dominant-baseline="central" >;</text>
<text text-anchor="middle" x="420" y="150" fill="red" dominant-baseline="central" >4</text>
<line x1="100" y1="200" x2="100" y2="300" stroke="green" stroke-width="3" />
<text text-anchor="middle" x="100" y="250" fill="red" dominant-baseline="central" >8</text>
<text text-anchor="middle" x="110" y="250" fill="red" dominant-baseline="central" >;</text>
<text text-anchor="middle" x="120" y="250" fill="red" dominant-baseline="central" >3</text>
<line x1="300" y1="200" x2="300" y2="300" stroke="green" stroke-width="3" />
<text text-anchor="middle" x="300" y="250" fill="red" dominant-baseline="central" >4</text>
<text text-anchor="middle" x="310" y="250" fill="red" dominant-baseline="central" >;</text>
<text text-anchor="middle" x="320" y="250" fill="red" dominant-baseline="central" >3</text>
<line x1="400" y1="200" x2="400" y2="300" stroke="green" stroke-width="3" />
<text text-anchor="middle" x="400" y="250" fill="red" dominant-baseline="central" >1</text>
<text text-anchor="middle" x="410" y="250" fill="red" dominant-baseline="central" >;</text>
<text text-anchor="middle" x="420" y="250" fill="red" dominant-baseline="central" >4</text>
<line x1="100" y1="300" x2="100" y2="400" stroke="green" stroke-width="3" />
<text text-anchor="middle" x="100" y="350" fill="red" dominant-baseline="central" >1</text>
<text text-anchor="middle" x="110" y="350" fill="red" dominant-baseline="central" >;</text>
<text text-anchor="middle" x="120" y="350" fill="red" dominant-baseline="central" >7</text>
<line x1="200" y1="300" x2="200" y2="400" stroke="green" stroke-width="3" />
<text text-anchor="middle" x="200" y="350" fill="red" dominant-baseline="central" >7</text>
<text text-anchor="middle" x="210" y="350" fill="red" dominant-baseline="central" >;</text>
<text text-anchor="middle" x="220" y="350" fill="red" dominant-baseline="central" >3</text>
<line x1="300" y1="300" x2="300" y2="400" stroke="green" stroke-width="3" />
<text text-anchor="middle" x="300" y="350" fill="red" dominant-baseline="central" >6</text>
<text text-anchor="middle" x="310" y="350" fill="red" dominant-baseline="central" >;</text>
<text text-anchor="middle" x="320" y="350" fill="red" dominant-baseline="central" >4</text>
<circle cx="100" cy="100" r="20" fill="rgb(0,0,0)" />
<text text-anchor="middle" x="100" y="100" fill="rgb(255,255,255)" dominant-baseline="central" >0</text>
<circle cx="200" cy="100" r="20" fill="rgb(0,0,0)" />
<text text-anchor="middle" x="200" y="100" fill="rgb(255,255,255)" dominant-baseline="central" >1</text>
<circle cx="300" cy="100" r="20" fill="rgb(0,0,0)" />
<text text-anchor="middle" x="300" y="100" fill="rgb(255,255,255)" dominant-baseline="central" >2</text>
<circle cx="400" cy="100" r="20" fill="rgb(0,0,0)" />
<text text-anchor="middle" x="400" y="100" fill="rgb(255,255,255)" dominant-baseline="central" >3</text>
<circle cx="100" cy="200" r="20" fill="rgb(0,0,0)" />
<text text-anchor="middle" x="100" y="200" fill="rgb(255,255,255)" dominant-baseline="central" >4</text>
<circle cx="200" cy="200" r="20" fill="rgb(0,0,0)" />
<text text-anchor="middle" x="200" y="200" fill="rgb(255,255,255)" dominant-baseline="central" >5</text>
<circle cx="300" cy="200" r="20" fill="rgb(0,0,0)" />
<text text-anchor="middle" x="300" y="200" fill="rgb(255,255,255)" dominant-baseline="central" >6</text>
<circle cx="400" cy="200" r="20" fill="rgb(0,0,0)" />
<text text-anchor="middle" x="400" y="200" fill="rgb(255,255,255)" dominant-baseline="central" >7</text>
<circle cx="100" cy="300" r="20" fill="rgb(0,0,0)" />
<text text-anchor="middle" x="100" y="300" fill="rgb(255,255,255)" dominant-baseline="central" >8</text>
<circle cx="200" cy="300" r="20" fill="rgb(0,0,0)" />
<text text-anchor="middle" x="200" y="300" fill="rgb(255,255,255)" dominant-baseline="central" >9</text>
<circle cx="300" cy="300" r="20" fill="rgb(0,0,0)" />
<text text-anchor="middle" x="300" y="300" fill="rgb(255,255,255)" dominant-baseline="central" >10</text>
<circle cx="400" cy="300" r="20" fill="rgb(0,0,0)" />
<text text-anchor="middle" x="400" y="300" fill="rgb(255,255,255)" dominant-baseline="central" >11</text>
<circle cx="100" cy="400" r="20" fill="rgb(0,0,0)" />
<text text-anchor="middle" x="100" y="400" fill="rgb(255,255,255)" dominant-baseline="central" >12</text>
<circle cx="200" cy="400" r="20" fill="rgb(0,0,0)" />
<text text-anchor="middle" x="200" y="400" fill="rgb(255,255,255)" dominant-baseline="central" >13</text>
<circle cx="300" cy="400" r="20" fill="rgb(0,0,0)" />
<text text-anchor="middle" x="300" y="400" fill="rgb(255,255,255)" dominant-baseline="central" >14</text>
<circle cx="400" cy="400" r="20" fill="rgb(0,0,0)" />
<text text-anchor="middle" x="400" y="400" fill="rgb(255,255,255)" dominant-baseline="central" >15</text>
<line x1="0" y1="0" x2="500" y2="0" stroke="black" stroke-width="1" />
<line x1="0" y1="0" x2="0" y2="500" stroke="black" stroke-width="1" />
<line x1="500" y1="0" x2="500" y2="500" stroke="black" stroke-width="1" />
<line x1="500" y1="500" x2="0" y2="500" stroke="black" stroke-width="1" />


</svg>
